{
    "asset" : {
        "generator" : "Khronos glTF Blender I/O v1.7.33",
        "version" : "2.0"
    },
    "scene" : 0,
    "scenes" : [
        {
            "name" : "Scene",
            "nodes" : [
                0
            ]
        }
    ],
    "nodes" : [
        {
            "mesh" : 0,
            "name" : "Cube",
            "translation" : [
                0.10593515634536743,
                0.04040074348449707,
                0.035954415798187256
            ]
        }
    ],
    "materials" : [
        {
            "doubleSided" : true,
            "name" : "Material",
            "pbrMetallicRoughness" : {
                "baseColorFactor" : [
                    0.8000000715255737,
                    0.29449519515037537,
                    0.08790066093206406,
                    1
                ],
                "metallicFactor" : 0,
                "roughnessFactor" : 0.4000000059604645
            }
        },
        {
            "doubleSided" : true,
            "name" : "Material.001",
            "pbrMetallicRoughness" : {
                "baseColorFactor" : [
                    0.8000000715255737,
                    0.36854687333106995,
                    0.7993947863578796,
                    1
                ],
                "metallicFactor" : 0,
                "roughnessFactor" : 0.5
            }
        },
        {
            "doubleSided" : true,
            "name" : "Material.007",
            "pbrMetallicRoughness" : {
                "baseColorFactor" : [
                    0.48102402687072754,
                    0.18713229894638062,
                    0.8000000715255737,
                    1
                ],
                "metallicFactor" : 0,
                "roughnessFactor" : 0.5
            }
        },
        {
            "doubleSided" : true,
            "name" : "Material.008",
            "pbrMetallicRoughness" : {
                "baseColorFactor" : [
                    0.7724745273590088,
                    0.39727598428726196,
                    0.8000000715255737,
                    1
                ],
                "metallicFactor" : 0,
                "roughnessFactor" : 0.5
            }
        },
        {
            "doubleSided" : true,
            "name" : "Material.006",
            "pbrMetallicRoughness" : {
                "baseColorFactor" : [
                    0.8000000715255737,
                    0.12835189700126648,
                    0.7263044714927673,
                    1
                ],
                "metallicFactor" : 0,
                "roughnessFactor" : 0.5
            }
        },
        {
            "doubleSided" : true,
            "name" : "Material.005",
            "pbrMetallicRoughness" : {
                "baseColorFactor" : [
                    0.7054575085639954,
                    0.21414130926132202,
                    0.8000000715255737,
                    1
                ],
                "metallicFactor" : 0,
                "roughnessFactor" : 0.5
            }
        },
        {
            "doubleSided" : true,
            "name" : "Material.004",
            "pbrMetallicRoughness" : {
                "baseColorFactor" : [
                    0.8000000715255737,
                    0.19251102209091187,
                    0.6880931854248047,
                    1
                ],
                "metallicFactor" : 0,
                "roughnessFactor" : 0.5
            }
        },
        {
            "doubleSided" : true,
            "name" : "Material.009",
            "pbrMetallicRoughness" : {
                "baseColorFactor" : [
                    0.7769244313240051,
                    0.23543445765972137,
                    0.8000000715255737,
                    1
                ],
                "metallicFactor" : 0,
                "roughnessFactor" : 0.5
            }
        },
        {
            "doubleSided" : true,
            "name" : "Material.003",
            "pbrMetallicRoughness" : {
                "baseColorFactor" : [
                    0.8000000715255737,
                    0.3478672504425049,
                    0.7909878492355347,
                    1
                ],
                "metallicFactor" : 0,
                "roughnessFactor" : 0.5
            }
        },
        {
            "doubleSided" : true,
            "name" : "Material.002",
            "pbrMetallicRoughness" : {
                "baseColorFactor" : [
                    0.7359713315963745,
                    0.32236048579216003,
                    0.8000000715255737,
                    1
                ],
                "metallicFactor" : 0,
                "roughnessFactor" : 0.5
            }
        }
    ],
    "meshes" : [
        {
            "name" : "Cube",
            "primitives" : [
                {
                    "attributes" : {
                        "POSITION" : 0,
                        "NORMAL" : 1,
                        "TEXCOORD_0" : 2
                    },
                    "indices" : 3,
                    "material" : 0
                },
                {
                    "attributes" : {
                        "POSITION" : 4,
                        "NORMAL" : 5,
                        "TEXCOORD_0" : 6
                    },
                    "indices" : 7,
                    "material" : 1
                },
                {
                    "attributes" : {
                        "POSITION" : 8,
                        "NORMAL" : 9,
                        "TEXCOORD_0" : 10
                    },
                    "indices" : 11,
                    "material" : 2
                },
                {
                    "attributes" : {
                        "POSITION" : 12,
                        "NORMAL" : 13,
                        "TEXCOORD_0" : 14
                    },
                    "indices" : 15,
                    "material" : 3
                },
                {
                    "attributes" : {
                        "POSITION" : 16,
                        "NORMAL" : 17,
                        "TEXCOORD_0" : 18
                    },
                    "indices" : 19,
                    "material" : 4
                },
                {
                    "attributes" : {
                        "POSITION" : 20,
                        "NORMAL" : 21,
                        "TEXCOORD_0" : 22
                    },
                    "indices" : 23,
                    "material" : 5
                },
                {
                    "attributes" : {
                        "POSITION" : 24,
                        "NORMAL" : 25,
                        "TEXCOORD_0" : 26
                    },
                    "indices" : 27,
                    "material" : 6
                },
                {
                    "attributes" : {
                        "POSITION" : 28,
                        "NORMAL" : 29,
                        "TEXCOORD_0" : 30
                    },
                    "indices" : 31,
                    "material" : 7
                },
                {
                    "attributes" : {
                        "POSITION" : 32,
                        "NORMAL" : 33,
                        "TEXCOORD_0" : 34
                    },
                    "indices" : 35,
                    "material" : 8
                },
                {
                    "attributes" : {
                        "POSITION" : 36,
                        "NORMAL" : 37,
                        "TEXCOORD_0" : 38
                    },
                    "indices" : 39,
                    "material" : 9
                }
            ]
        }
    ],
    "accessors" : [
        {
            "bufferView" : 0,
            "componentType" : 5126,
            "count" : 1850,
            "max" : [
                2.5188815593719482,
                4.6968278884887695,
                2.6629412174224854
            ],
            "min" : [
                -1.8243147134780884,
                -0.03668055683374405,
                -2.433619260787964
            ],
            "type" : "VEC3"
        },
        {
            "bufferView" : 1,
            "componentType" : 5126,
            "count" : 1850,
            "type" : "VEC3"
        },
        {
            "bufferView" : 2,
            "componentType" : 5126,
            "count" : 1850,
            "type" : "VEC2"
        },
        {
            "bufferView" : 3,
            "componentType" : 5123,
            "count" : 2742,
            "type" : "SCALAR"
        },
        {
            "bufferView" : 4,
            "componentType" : 5126,
            "count" : 240,
            "max" : [
                -0.03267962485551834,
                5.601590156555176,
                3.530982732772827
            ],
            "min" : [
                -1.4478833675384521,
                4.113558769226074,
                2.042951822280884
            ],
            "type" : "VEC3"
        },
        {
            "bufferView" : 5,
            "componentType" : 5126,
            "count" : 240,
            "type" : "VEC3"
        },
        {
            "bufferView" : 6,
            "componentType" : 5126,
            "count" : 240,
            "type" : "VEC2"
        },
        {
            "bufferView" : 7,
            "componentType" : 5123,
            "count" : 240,
            "type" : "SCALAR"
        },
        {
            "bufferView" : 8,
            "componentType" : 5126,
            "count" : 240,
            "max" : [
                -0.9911059141159058,
                4.987802505493164,
                3.095202922821045
            ],
            "min" : [
                -2.4063096046447754,
                3.4997715950012207,
                1.6071720123291016
            ],
            "type" : "VEC3"
        },
        {
            "bufferView" : 9,
            "componentType" : 5126,
            "count" : 240,
            "type" : "VEC3"
        },
        {
            "bufferView" : 10,
            "componentType" : 5126,
            "count" : 240,
            "type" : "VEC2"
        },
        {
            "bufferView" : 11,
            "componentType" : 5123,
            "count" : 240,
            "type" : "SCALAR"
        },
        {
            "bufferView" : 12,
            "componentType" : 5126,
            "count" : 240,
            "max" : [
                0.29470402002334595,
                5.325345039367676,
                2.4381744861602783
            ],
            "min" : [
                -1.120499610900879,
                3.837313175201416,
                0.9501433372497559
            ],
            "type" : "VEC3"
        },
        {
            "bufferView" : 13,
            "componentType" : 5126,
            "count" : 240,
            "type" : "VEC3"
        },
        {
            "bufferView" : 14,
            "componentType" : 5126,
            "count" : 240,
            "type" : "VEC2"
        },
        {
            "bufferView" : 15,
            "componentType" : 5123,
            "count" : 240,
            "type" : "SCALAR"
        },
        {
            "bufferView" : 16,
            "componentType" : 5126,
            "count" : 240,
            "max" : [
                -0.517063558101654,
                5.013976097106934,
                0.9279735088348389
            ],
            "min" : [
                -2.033684730529785,
                3.4193084239959717,
                -0.6666940450668335
            ],
            "type" : "VEC3"
        },
        {
            "bufferView" : 17,
            "componentType" : 5126,
            "count" : 240,
            "type" : "VEC3"
        },
        {
            "bufferView" : 18,
            "componentType" : 5126,
            "count" : 240,
            "type" : "VEC2"
        },
        {
            "bufferView" : 19,
            "componentType" : 5123,
            "count" : 240,
            "type" : "SCALAR"
        },
        {
            "bufferView" : 20,
            "componentType" : 5126,
            "count" : 240,
            "max" : [
                -1.0340330600738525,
                4.717958450317383,
                0.08315465599298477
            ],
            "min" : [
                -2.550654172897339,
                3.1232903003692627,
                -1.5115129947662354
            ],
            "type" : "VEC3"
        },
        {
            "bufferView" : 21,
            "componentType" : 5126,
            "count" : 240,
            "type" : "VEC3"
        },
        {
            "bufferView" : 22,
            "componentType" : 5126,
            "count" : 240,
            "type" : "VEC2"
        },
        {
            "bufferView" : 23,
            "componentType" : 5123,
            "count" : 240,
            "type" : "SCALAR"
        },
        {
            "bufferView" : 24,
            "componentType" : 5126,
            "count" : 240,
            "max" : [
                1.142333745956421,
                5.640899658203125,
                -1.1779905557632446
            ],
            "min" : [
                -1.5645679235458374,
                2.794698476791382,
                -4.024190902709961
            ],
            "type" : "VEC3"
        },
        {
            "bufferView" : 25,
            "componentType" : 5126,
            "count" : 240,
            "type" : "VEC3"
        },
        {
            "bufferView" : 26,
            "componentType" : 5126,
            "count" : 240,
            "type" : "VEC2"
        },
        {
            "bufferView" : 27,
            "componentType" : 5123,
            "count" : 240,
            "type" : "SCALAR"
        },
        {
            "bufferView" : 28,
            "componentType" : 5126,
            "count" : 240,
            "max" : [
                0.6999847888946533,
                5.940792083740234,
                1.155712366104126
            ],
            "min" : [
                -1.278496503829956,
                3.860496759414673,
                -0.924582839012146
            ],
            "type" : "VEC3"
        },
        {
            "bufferView" : 29,
            "componentType" : 5126,
            "count" : 240,
            "type" : "VEC3"
        },
        {
            "bufferView" : 30,
            "componentType" : 5126,
            "count" : 240,
            "type" : "VEC2"
        },
        {
            "bufferView" : 31,
            "componentType" : 5123,
            "count" : 240,
            "type" : "SCALAR"
        },
        {
            "bufferView" : 32,
            "componentType" : 5126,
            "count" : 240,
            "max" : [
                3.7145121097564697,
                5.910344123840332,
                0.6126028299331665
            ],
            "min" : [
                1.044290542602539,
                3.1027109622955322,
                -2.1950299739837646
            ],
            "type" : "VEC3"
        },
        {
            "bufferView" : 33,
            "componentType" : 5126,
            "count" : 240,
            "type" : "VEC3"
        },
        {
            "bufferView" : 34,
            "componentType" : 5126,
            "count" : 240,
            "type" : "VEC2"
        },
        {
            "bufferView" : 35,
            "componentType" : 5123,
            "count" : 240,
            "type" : "SCALAR"
        },
        {
            "bufferView" : 36,
            "componentType" : 5126,
            "count" : 240,
            "max" : [
                2.9345908164978027,
                5.674891471862793,
                3.172529697418213
            ],
            "min" : [
                0.47766900062561035,
                3.091534376144409,
                0.5891731977462769
            ],
            "type" : "VEC3"
        },
        {
            "bufferView" : 37,
            "componentType" : 5126,
            "count" : 240,
            "type" : "VEC3"
        },
        {
            "bufferView" : 38,
            "componentType" : 5126,
            "count" : 240,
            "type" : "VEC2"
        },
        {
            "bufferView" : 39,
            "componentType" : 5123,
            "count" : 240,
            "type" : "SCALAR"
        }
    ],
    "bufferViews" : [
        {
            "buffer" : 0,
            "byteLength" : 22200,
            "byteOffset" : 0
        },
        {
            "buffer" : 0,
            "byteLength" : 22200,
            "byteOffset" : 22200
        },
        {
            "buffer" : 0,
            "byteLength" : 14800,
            "byteOffset" : 44400
        },
        {
            "buffer" : 0,
            "byteLength" : 5484,
            "byteOffset" : 59200
        },
        {
            "buffer" : 0,
            "byteLength" : 2880,
            "byteOffset" : 64684
        },
        {
            "buffer" : 0,
            "byteLength" : 2880,
            "byteOffset" : 67564
        },
        {
            "buffer" : 0,
            "byteLength" : 1920,
            "byteOffset" : 70444
        },
        {
            "buffer" : 0,
            "byteLength" : 480,
            "byteOffset" : 72364
        },
        {
            "buffer" : 0,
            "byteLength" : 2880,
            "byteOffset" : 72844
        },
        {
            "buffer" : 0,
            "byteLength" : 2880,
            "byteOffset" : 75724
        },
        {
            "buffer" : 0,
            "byteLength" : 1920,
            "byteOffset" : 78604
        },
        {
            "buffer" : 0,
            "byteLength" : 480,
            "byteOffset" : 80524
        },
        {
            "buffer" : 0,
            "byteLength" : 2880,
            "byteOffset" : 81004
        },
        {
            "buffer" : 0,
            "byteLength" : 2880,
            "byteOffset" : 83884
        },
        {
            "buffer" : 0,
            "byteLength" : 1920,
            "byteOffset" : 86764
        },
        {
            "buffer" : 0,
            "byteLength" : 480,
            "byteOffset" : 88684
        },
        {
            "buffer" : 0,
            "byteLength" : 2880,
            "byteOffset" : 89164
        },
        {
            "buffer" : 0,
            "byteLength" : 2880,
            "byteOffset" : 92044
        },
        {
            "buffer" : 0,
            "byteLength" : 1920,
            "byteOffset" : 94924
        },
        {
            "buffer" : 0,
            "byteLength" : 480,
            "byteOffset" : 96844
        },
        {
            "buffer" : 0,
            "byteLength" : 2880,
            "byteOffset" : 97324
        },
        {
            "buffer" : 0,
            "byteLength" : 2880,
            "byteOffset" : 100204
        },
        {
            "buffer" : 0,
            "byteLength" : 1920,
            "byteOffset" : 103084
        },
        {
            "buffer" : 0,
            "byteLength" : 480,
            "byteOffset" : 105004
        },
        {
            "buffer" : 0,
            "byteLength" : 2880,
            "byteOffset" : 105484
        },
        {
            "buffer" : 0,
            "byteLength" : 2880,
            "byteOffset" : 108364
        },
        {
            "buffer" : 0,
            "byteLength" : 1920,
            "byteOffset" : 111244
        },
        {
            "buffer" : 0,
            "byteLength" : 480,
            "byteOffset" : 113164
        },
        {
            "buffer" : 0,
            "byteLength" : 2880,
            "byteOffset" : 113644
        },
        {
            "buffer" : 0,
            "byteLength" : 2880,
            "byteOffset" : 116524
        },
        {
            "buffer" : 0,
            "byteLength" : 1920,
            "byteOffset" : 119404
        },
        {
            "buffer" : 0,
            "byteLength" : 480,
            "byteOffset" : 121324
        },
        {
            "buffer" : 0,
            "byteLength" : 2880,
            "byteOffset" : 121804
        },
        {
            "buffer" : 0,
            "byteLength" : 2880,
            "byteOffset" : 124684
        },
        {
            "buffer" : 0,
            "byteLength" : 1920,
            "byteOffset" : 127564
        },
        {
            "buffer" : 0,
            "byteLength" : 480,
            "byteOffset" : 129484
        },
        {
            "buffer" : 0,
            "byteLength" : 2880,
            "byteOffset" : 129964
        },
        {
            "buffer" : 0,
            "byteLength" : 2880,
            "byteOffset" : 132844
        },
        {
            "buffer" : 0,
            "byteLength" : 1920,
            "byteOffset" : 135724
        },
        {
            "buffer" : 0,
            "byteLength" : 480,
            "byteOffset" : 137644
        }
    ],
    "buffers" : [
        {
            "byteLength" : 138124,
            "uri" : "data:application/octet-stream;base64,"
        }
    ]
}
