{
    "asset" : {
        "generator" : "Khronos glTF Blender I/O v1.7.33",
        "version" : "2.0"
    },
    "scene" : 0,
    "scenes" : [
        {
            "name" : "Scene",
            "nodes" : [
                0
            ]
        }
    ],
    "nodes" : [
        {
            "mesh" : 0,
            "name" : "Icosphere.002",
            "translation" : [
                -0.003732621669769287,
                0.00018739700317382812,
                -0.010526835918426514
            ]
        }
    ],
    "materials" : [
        {
            "doubleSided" : true,
            "name" : "Material.003",
            "pbrMetallicRoughness" : {
                "baseColorFactor" : [
                    0.8000000715255737,
                    0.47362351417541504,
                    0.08098259568214417,
                    1
                ],
                "metallicFactor" : 0,
                "roughnessFactor" : 0.5
            }
        },
        {
            "doubleSided" : true,
            "name" : "Material",
            "pbrMetallicRoughness" : {
                "baseColorFactor" : [
                    0.05496864765882492,
                    0.019533760845661163,
                    0.004494605120271444,
                    1
                ],
                "metallicFactor" : 0,
                "roughnessFactor" : 0.4000000059604645
            }
        },
        {
            "doubleSided" : true,
            "name" : "Material.001",
            "pbrMetallicRoughness" : {
                "baseColorFactor" : [
                    0.8000000715255737,
                    0.2820742428302765,
                    0.10296336561441422,
                    1
                ],
                "metallicFactor" : 0,
                "roughnessFactor" : 0.5
            }
        },
        {
            "doubleSided" : true,
            "name" : "Material.002",
            "pbrMetallicRoughness" : {
                "baseColorFactor" : [
                    0.8000000715255737,
                    0.3191675841808319,
                    0.07892966270446777,
                    1
                ],
                "metallicFactor" : 0,
                "roughnessFactor" : 0.5
            }
        },
        {
            "doubleSided" : true,
            "name" : "Material.004",
            "pbrMetallicRoughness" : {
                "baseColorFactor" : [
                    0.8000000715255737,
                    0.3573705554008484,
                    0.07471167296171188,
                    1
                ],
                "metallicFactor" : 0,
                "roughnessFactor" : 0.5
            }
        },
        {
            "doubleSided" : true,
            "name" : "Material.005",
            "pbrMetallicRoughness" : {
                "baseColorFactor" : [
                    0.8000000715255737,
                    0.729241132736206,
                    0.11072106659412384,
                    1
                ],
                "metallicFactor" : 0,
                "roughnessFactor" : 0.5
            }
        },
        {
            "doubleSided" : true,
            "name" : "Material.006",
            "pbrMetallicRoughness" : {
                "baseColorFactor" : [
                    0.8000000715255737,
                    0.43312177062034607,
                    0.1576821506023407,
                    1
                ],
                "metallicFactor" : 0,
                "roughnessFactor" : 0.5
            }
        },
        {
            "doubleSided" : true,
            "name" : "Material.007",
            "pbrMetallicRoughness" : {
                "baseColorFactor" : [
                    0.8000000715255737,
                    0.5943937301635742,
                    0.12825416028499603,
                    1
                ],
                "metallicFactor" : 0,
                "roughnessFactor" : 0.5
            }
        },
        {
            "doubleSided" : true,
            "name" : "Material.008",
            "pbrMetallicRoughness" : {
                "baseColorFactor" : [
                    0.8000000715255737,
                    0.4613722264766693,
                    0.14233280718326569,
                    1
                ],
                "metallicFactor" : 0,
                "roughnessFactor" : 0.5
            }
        },
        {
            "doubleSided" : true,
            "name" : "Material.009",
            "pbrMetallicRoughness" : {
                "baseColorFactor" : [
                    0.8000000715255737,
                    0.24661950767040253,
                    0.049676548689603806,
                    1
                ],
                "metallicFactor" : 0,
                "roughnessFactor" : 0.5
            }
        },
        {
            "doubleSided" : true,
            "name" : "Material.010",
            "pbrMetallicRoughness" : {
                "baseColorFactor" : [
                    0.8000000715255737,
                    0.24275502562522888,
                    0.04352255165576935,
                    1
                ],
                "metallicFactor" : 0,
                "roughnessFactor" : 0.5
            }
        }
    ],
    "meshes" : [
        {
            "name" : "Icosphere.002",
            "primitives" : [
                {
                    "attributes" : {
                        "POSITION" : 0,
                        "NORMAL" : 1,
                        "TEXCOORD_0" : 2
                    },
                    "indices" : 3,
                    "material" : 0
                },
                {
                    "attributes" : {
                        "POSITION" : 4,
                        "NORMAL" : 5,
                        "TEXCOORD_0" : 6
                    },
                    "indices" : 7,
                    "material" : 1
                },
                {
                    "attributes" : {
                        "POSITION" : 8,
                        "NORMAL" : 9,
                        "TEXCOORD_0" : 10
                    },
                    "indices" : 11,
                    "material" : 2
                },
                {
                    "attributes" : {
                        "POSITION" : 12,
                        "NORMAL" : 13,
                        "TEXCOORD_0" : 14
                    },
                    "indices" : 15,
                    "material" : 3
                },
                {
                    "attributes" : {
                        "POSITION" : 16,
                        "NORMAL" : 17,
                        "TEXCOORD_0" : 18
                    },
                    "indices" : 19,
                    "material" : 4
                },
                {
                    "attributes" : {
                        "POSITION" : 20,
                        "NORMAL" : 21,
                        "TEXCOORD_0" : 22
                    },
                    "indices" : 23,
                    "material" : 5
                },
                {
                    "attributes" : {
                        "POSITION" : 24,
                        "NORMAL" : 25,
                        "TEXCOORD_0" : 26
                    },
                    "indices" : 27,
                    "material" : 6
                },
                {
                    "attributes" : {
                        "POSITION" : 28,
                        "NORMAL" : 29,
                        "TEXCOORD_0" : 30
                    },
                    "indices" : 31,
                    "material" : 7
                },
                {
                    "attributes" : {
                        "POSITION" : 32,
                        "NORMAL" : 33,
                        "TEXCOORD_0" : 34
                    },
                    "indices" : 35,
                    "material" : 8
                },
                {
                    "attributes" : {
                        "POSITION" : 36,
                        "NORMAL" : 37,
                        "TEXCOORD_0" : 38
                    },
                    "indices" : 39,
                    "material" : 9
                },
                {
                    "attributes" : {
                        "POSITION" : 40,
                        "NORMAL" : 41,
                        "TEXCOORD_0" : 42
                    },
                    "indices" : 43,
                    "material" : 10
                }
            ]
        }
    ],
    "accessors" : [
        {
            "bufferView" : 0,
            "componentType" : 5126,
            "count" : 240,
            "max" : [
                0.4809494614601135,
                4.923923015594482,
                -0.24738913774490356
            ],
            "min" : [
                -0.6123661398887634,
                3.7743446826934814,
                -1.3969674110412598
            ],
            "type" : "VEC3"
        },
        {
            "bufferView" : 1,
            "componentType" : 5126,
            "count" : 240,
            "type" : "VEC3"
        },
        {
            "bufferView" : 2,
            "componentType" : 5126,
            "count" : 240,
            "type" : "VEC2"
        },
        {
            "bufferView" : 3,
            "componentType" : 5123,
            "count" : 240,
            "type" : "SCALAR"
        },
        {
            "bufferView" : 4,
            "componentType" : 5126,
            "count" : 2600,
            "max" : [
                2.5117175579071045,
                4.9514851570129395,
                2.36198353767395
            ],
            "min" : [
                -2.1923739910125732,
                -0.010663032531738281,
                -2.0192837715148926
            ],
            "type" : "VEC3"
        },
        {
            "bufferView" : 5,
            "componentType" : 5126,
            "count" : 2600,
            "type" : "VEC3"
        },
        {
            "bufferView" : 6,
            "componentType" : 5126,
            "count" : 2600,
            "type" : "VEC2"
        },
        {
            "bufferView" : 7,
            "componentType" : 5123,
            "count" : 3879,
            "type" : "SCALAR"
        },
        {
            "bufferView" : 8,
            "componentType" : 5126,
            "count" : 240,
            "max" : [
                -0.3292025625705719,
                5.950397968292236,
                -0.7096123099327087
            ],
            "min" : [
                -2.231318235397339,
                3.9503979682922363,
                -2.7096121311187744
            ],
            "type" : "VEC3"
        },
        {
            "bufferView" : 9,
            "componentType" : 5126,
            "count" : 240,
            "type" : "VEC3"
        },
        {
            "bufferView" : 10,
            "componentType" : 5126,
            "count" : 240,
            "type" : "VEC2"
        },
        {
            "bufferView" : 11,
            "componentType" : 5123,
            "count" : 240,
            "type" : "SCALAR"
        },
        {
            "bufferView" : 12,
            "componentType" : 5126,
            "count" : 240,
            "max" : [
                3.374285936355591,
                4.999514102935791,
                -0.011997103691101074
            ],
            "min" : [
                1.7078908681869507,
                3.2473649978637695,
                -1.7641462087631226
            ],
            "type" : "VEC3"
        },
        {
            "bufferView" : 13,
            "componentType" : 5126,
            "count" : 240,
            "type" : "VEC3"
        },
        {
            "bufferView" : 14,
            "componentType" : 5126,
            "count" : 240,
            "type" : "VEC2"
        },
        {
            "bufferView" : 15,
            "componentType" : 5123,
            "count" : 240,
            "type" : "SCALAR"
        },
        {
            "bufferView" : 16,
            "componentType" : 5126,
            "count" : 240,
            "max" : [
                1.6829575300216675,
                5.764312744140625,
                -1.046825647354126
            ],
            "min" : [
                -0.024142872542142868,
                3.9693639278411865,
                -2.8417744636535645
            ],
            "type" : "VEC3"
        },
        {
            "bufferView" : 17,
            "componentType" : 5126,
            "count" : 240,
            "type" : "VEC3"
        },
        {
            "bufferView" : 18,
            "componentType" : 5126,
            "count" : 240,
            "type" : "VEC2"
        },
        {
            "bufferView" : 19,
            "componentType" : 5123,
            "count" : 240,
            "type" : "SCALAR"
        },
        {
            "bufferView" : 20,
            "componentType" : 5126,
            "count" : 240,
            "max" : [
                1.6075940132141113,
                4.93942928314209,
                0.39087146520614624
            ],
            "min" : [
                0.0623205229640007,
                3.3146347999572754,
                -1.2339229583740234
            ],
            "type" : "VEC3"
        },
        {
            "bufferView" : 21,
            "componentType" : 5126,
            "count" : 240,
            "type" : "VEC3"
        },
        {
            "bufferView" : 22,
            "componentType" : 5126,
            "count" : 240,
            "type" : "VEC2"
        },
        {
            "bufferView" : 23,
            "componentType" : 5123,
            "count" : 240,
            "type" : "SCALAR"
        },
        {
            "bufferView" : 24,
            "componentType" : 5126,
            "count" : 240,
            "max" : [
                2.215965986251831,
                5.147441864013672,
                2.0033373832702637
            ],
            "min" : [
                0.5091891884803772,
                3.3528332710266113,
                0.2087288498878479
            ],
            "type" : "VEC3"
        },
        {
            "bufferView" : 25,
            "componentType" : 5126,
            "count" : 240,
            "type" : "VEC3"
        },
        {
            "bufferView" : 26,
            "componentType" : 5126,
            "count" : 240,
            "type" : "VEC2"
        },
        {
            "bufferView" : 27,
            "componentType" : 5123,
            "count" : 240,
            "type" : "SCALAR"
        },
        {
            "bufferView" : 28,
            "componentType" : 5126,
            "count" : 240,
            "max" : [
                1.2753698825836182,
                5.683715343475342,
                3.2557077407836914
            ],
            "min" : [
                -0.32306432723999023,
                4.003024578094482,
                1.575016975402832
            ],
            "type" : "VEC3"
        },
        {
            "bufferView" : 29,
            "componentType" : 5126,
            "count" : 240,
            "type" : "VEC3"
        },
        {
            "bufferView" : 30,
            "componentType" : 5126,
            "count" : 240,
            "type" : "VEC2"
        },
        {
            "bufferView" : 31,
            "componentType" : 5123,
            "count" : 240,
            "type" : "SCALAR"
        },
        {
            "bufferView" : 32,
            "componentType" : 5126,
            "count" : 240,
            "max" : [
                -0.11620903015136719,
                4.8192949295043945,
                3.3487815856933594
            ],
            "min" : [
                -1.714643120765686,
                3.138604164123535,
                1.668091058731079
            ],
            "type" : "VEC3"
        },
        {
            "bufferView" : 33,
            "componentType" : 5126,
            "count" : 240,
            "type" : "VEC3"
        },
        {
            "bufferView" : 34,
            "componentType" : 5126,
            "count" : 240,
            "type" : "VEC2"
        },
        {
            "bufferView" : 35,
            "componentType" : 5123,
            "count" : 240,
            "type" : "SCALAR"
        },
        {
            "bufferView" : 36,
            "componentType" : 5126,
            "count" : 240,
            "max" : [
                -1.3577959537506104,
                4.374720096588135,
                2.0278124809265137
            ],
            "min" : [
                -2.956230401992798,
                2.6940293312072754,
                0.3471218943595886
            ],
            "type" : "VEC3"
        },
        {
            "bufferView" : 37,
            "componentType" : 5126,
            "count" : 240,
            "type" : "VEC3"
        },
        {
            "bufferView" : 38,
            "componentType" : 5126,
            "count" : 240,
            "type" : "VEC2"
        },
        {
            "bufferView" : 39,
            "componentType" : 5123,
            "count" : 240,
            "type" : "SCALAR"
        },
        {
            "bufferView" : 40,
            "componentType" : 5126,
            "count" : 240,
            "max" : [
                -0.01108257845044136,
                5.398182392120361,
                1.5519652366638184
            ],
            "min" : [
                -1.6095167398452759,
                3.717491626739502,
                -0.12872546911239624
            ],
            "type" : "VEC3"
        },
        {
            "bufferView" : 41,
            "componentType" : 5126,
            "count" : 240,
            "type" : "VEC3"
        },
        {
            "bufferView" : 42,
            "componentType" : 5126,
            "count" : 240,
            "type" : "VEC2"
        },
        {
            "bufferView" : 43,
            "componentType" : 5123,
            "count" : 240,
            "type" : "SCALAR"
        }
    ],
    "bufferViews" : [
        {
            "buffer" : 0,
            "byteLength" : 2880,
            "byteOffset" : 0
        },
        {
            "buffer" : 0,
            "byteLength" : 2880,
            "byteOffset" : 2880
        },
        {
            "buffer" : 0,
            "byteLength" : 1920,
            "byteOffset" : 5760
        },
        {
            "buffer" : 0,
            "byteLength" : 480,
            "byteOffset" : 7680
        },
        {
            "buffer" : 0,
            "byteLength" : 31200,
            "byteOffset" : 8160
        },
        {
            "buffer" : 0,
            "byteLength" : 31200,
            "byteOffset" : 39360
        },
        {
            "buffer" : 0,
            "byteLength" : 20800,
            "byteOffset" : 70560
        },
        {
            "buffer" : 0,
            "byteLength" : 7758,
            "byteOffset" : 91360
        },
        {
            "buffer" : 0,
            "byteLength" : 2880,
            "byteOffset" : 99120
        },
        {
            "buffer" : 0,
            "byteLength" : 2880,
            "byteOffset" : 102000
        },
        {
            "buffer" : 0,
            "byteLength" : 1920,
            "byteOffset" : 104880
        },
        {
            "buffer" : 0,
            "byteLength" : 480,
            "byteOffset" : 106800
        },
        {
            "buffer" : 0,
            "byteLength" : 2880,
            "byteOffset" : 107280
        },
        {
            "buffer" : 0,
            "byteLength" : 2880,
            "byteOffset" : 110160
        },
        {
            "buffer" : 0,
            "byteLength" : 1920,
            "byteOffset" : 113040
        },
        {
            "buffer" : 0,
            "byteLength" : 480,
            "byteOffset" : 114960
        },
        {
            "buffer" : 0,
            "byteLength" : 2880,
            "byteOffset" : 115440
        },
        {
            "buffer" : 0,
            "byteLength" : 2880,
            "byteOffset" : 118320
        },
        {
            "buffer" : 0,
            "byteLength" : 1920,
            "byteOffset" : 121200
        },
        {
            "buffer" : 0,
            "byteLength" : 480,
            "byteOffset" : 123120
        },
        {
            "buffer" : 0,
            "byteLength" : 2880,
            "byteOffset" : 123600
        },
        {
            "buffer" : 0,
            "byteLength" : 2880,
            "byteOffset" : 126480
        },
        {
            "buffer" : 0,
            "byteLength" : 1920,
            "byteOffset" : 129360
        },
        {
            "buffer" : 0,
            "byteLength" : 480,
            "byteOffset" : 131280
        },
        {
            "buffer" : 0,
            "byteLength" : 2880,
            "byteOffset" : 131760
        },
        {
            "buffer" : 0,
            "byteLength" : 2880,
            "byteOffset" : 134640
        },
        {
            "buffer" : 0,
            "byteLength" : 1920,
            "byteOffset" : 137520
        },
        {
            "buffer" : 0,
            "byteLength" : 480,
            "byteOffset" : 139440
        },
        {
            "buffer" : 0,
            "byteLength" : 2880,
            "byteOffset" : 139920
        },
        {
            "buffer" : 0,
            "byteLength" : 2880,
            "byteOffset" : 142800
        },
        {
            "buffer" : 0,
            "byteLength" : 1920,
            "byteOffset" : 145680
        },
        {
            "buffer" : 0,
            "byteLength" : 480,
            "byteOffset" : 147600
        },
        {
            "buffer" : 0,
            "byteLength" : 2880,
            "byteOffset" : 148080
        },
        {
            "buffer" : 0,
            "byteLength" : 2880,
            "byteOffset" : 150960
        },
        {
            "buffer" : 0,
            "byteLength" : 1920,
            "byteOffset" : 153840
        },
        {
            "buffer" : 0,
            "byteLength" : 480,
            "byteOffset" : 155760
        },
        {
            "buffer" : 0,
            "byteLength" : 2880,
            "byteOffset" : 156240
        },
        {
            "buffer" : 0,
            "byteLength" : 2880,
            "byteOffset" : 159120
        },
        {
            "buffer" : 0,
            "byteLength" : 1920,
            "byteOffset" : 162000
        },
        {
            "buffer" : 0,
            "byteLength" : 480,
            "byteOffset" : 163920
        },
        {
            "buffer" : 0,
            "byteLength" : 2880,
            "byteOffset" : 164400
        },
        {
            "buffer" : 0,
            "byteLength" : 2880,
            "byteOffset" : 167280
        },
        {
            "buffer" : 0,
            "byteLength" : 1920,
            "byteOffset" : 170160
        },
        {
            "buffer" : 0,
            "byteLength" : 480,
            "byteOffset" : 172080
        }
    ],
    "buffers" : [
        {
            "byteLength" : 172560,
            "uri" : "data:application/octet-stream;base64,"
        }
    ]
}
