{
    "asset" : {
        "generator" : "Khronos glTF Blender I/O v1.7.33",
        "version" : "2.0"
    },
    "scene" : 0,
    "scenes" : [
        {
            "name" : "Scene",
            "nodes" : [
                0
            ]
        }
    ],
    "nodes" : [
        {
            "mesh" : 0,
            "name" : "Icosphere.002",
            "translation" : [
                0.393574595451355,
                0.022556304931640625,
                -0.011552631855010986
            ]
        }
    ],
    "materials" : [
        {
            "doubleSided" : true,
            "name" : "Material.002",
            "pbrMetallicRoughness" : {
                "baseColorFactor" : [
                    0.17216643691062927,
                    0.8000000715255737,
                    0.08638215810060501,
                    1
                ],
                "metallicFactor" : 0,
                "roughnessFactor" : 0.5
            }
        },
        {
            "doubleSided" : true,
            "name" : "Material",
            "pbrMetallicRoughness" : {
                "baseColorFactor" : [
                    0.8000000715255737,
                    0.13711850345134735,
                    0,
                    1
                ],
                "metallicFactor" : 0,
                "roughnessFactor" : 0.4000000059604645
            }
        },
        {
            "doubleSided" : true,
            "name" : "Material.005",
            "pbrMetallicRoughness" : {
                "baseColorFactor" : [
                    0.0704413652420044,
                    0.8000000715255737,
                    0.010482310317456722,
                    1
                ],
                "metallicFactor" : 0,
                "roughnessFactor" : 0.5
            }
        },
        {
            "doubleSided" : true,
            "name" : "Material.001",
            "pbrMetallicRoughness" : {
                "baseColorFactor" : [
                    0.2510584592819214,
                    0.8000000715255737,
                    0.09015030413866043,
                    1
                ],
                "metallicFactor" : 0,
                "roughnessFactor" : 0.5
            }
        },
        {
            "doubleSided" : true,
            "name" : "Material.003",
            "pbrMetallicRoughness" : {
                "baseColorFactor" : [
                    0.1541229635477066,
                    0.8000000715255737,
                    0.06321004778146744,
                    1
                ],
                "metallicFactor" : 0,
                "roughnessFactor" : 0.5
            }
        },
        {
            "doubleSided" : true,
            "name" : "Material.004",
            "pbrMetallicRoughness" : {
                "baseColorFactor" : [
                    0.28378865122795105,
                    0.8000000715255737,
                    0.009034070186316967,
                    1
                ],
                "metallicFactor" : 0,
                "roughnessFactor" : 0.5
            }
        },
        {
            "doubleSided" : true,
            "name" : "Material.006",
            "pbrMetallicRoughness" : {
                "baseColorFactor" : [
                    0.24256032705307007,
                    0.8000000715255737,
                    0.00768893351778388,
                    1
                ],
                "metallicFactor" : 0,
                "roughnessFactor" : 0.5
            }
        },
        {
            "doubleSided" : true,
            "name" : "Material.007",
            "pbrMetallicRoughness" : {
                "baseColorFactor" : [
                    0.38892146944999695,
                    0.8000000715255737,
                    0.01086325291544199,
                    1
                ],
                "metallicFactor" : 0,
                "roughnessFactor" : 0.5
            }
        },
        {
            "doubleSided" : true,
            "name" : "Material.008",
            "pbrMetallicRoughness" : {
                "baseColorFactor" : [
                    0.21068571507930756,
                    0.8000000715255737,
                    0.01583731174468994,
                    1
                ],
                "metallicFactor" : 0,
                "roughnessFactor" : 0.5
            }
        },
        {
            "doubleSided" : true,
            "name" : "Material.009",
            "pbrMetallicRoughness" : {
                "baseColorFactor" : [
                    0.3179869055747986,
                    0.8000000715255737,
                    0,
                    1
                ],
                "metallicFactor" : 0,
                "roughnessFactor" : 0.5
            }
        }
    ],
    "meshes" : [
        {
            "name" : "Icosphere.002",
            "primitives" : [
                {
                    "attributes" : {
                        "POSITION" : 0,
                        "NORMAL" : 1,
                        "TEXCOORD_0" : 2
                    },
                    "indices" : 3,
                    "material" : 0
                },
                {
                    "attributes" : {
                        "POSITION" : 4,
                        "NORMAL" : 5,
                        "TEXCOORD_0" : 6
                    },
                    "indices" : 7,
                    "material" : 1
                },
                {
                    "attributes" : {
                        "POSITION" : 8,
                        "NORMAL" : 9,
                        "TEXCOORD_0" : 10
                    },
                    "indices" : 11,
                    "material" : 2
                },
                {
                    "attributes" : {
                        "POSITION" : 12,
                        "NORMAL" : 13,
                        "TEXCOORD_0" : 14
                    },
                    "indices" : 15,
                    "material" : 3
                },
                {
                    "attributes" : {
                        "POSITION" : 16,
                        "NORMAL" : 17,
                        "TEXCOORD_0" : 18
                    },
                    "indices" : 19,
                    "material" : 4
                },
                {
                    "attributes" : {
                        "POSITION" : 20,
                        "NORMAL" : 21,
                        "TEXCOORD_0" : 22
                    },
                    "indices" : 23,
                    "material" : 5
                },
                {
                    "attributes" : {
                        "POSITION" : 24,
                        "NORMAL" : 25,
                        "TEXCOORD_0" : 26
                    },
                    "indices" : 27,
                    "material" : 6
                },
                {
                    "attributes" : {
                        "POSITION" : 28,
                        "NORMAL" : 29,
                        "TEXCOORD_0" : 30
                    },
                    "indices" : 31,
                    "material" : 7
                },
                {
                    "attributes" : {
                        "POSITION" : 32,
                        "NORMAL" : 33,
                        "TEXCOORD_0" : 34
                    },
                    "indices" : 35,
                    "material" : 8
                },
                {
                    "attributes" : {
                        "POSITION" : 36,
                        "NORMAL" : 37,
                        "TEXCOORD_0" : 38
                    },
                    "indices" : 39,
                    "material" : 9
                }
            ]
        }
    ],
    "accessors" : [
        {
            "bufferView" : 0,
            "componentType" : 5126,
            "count" : 240,
            "max" : [
                1.8634015321731567,
                5.596128463745117,
                -0.5115389823913574
            ],
            "min" : [
                0.3686124086380005,
                4.024416923522949,
                -2.0832507610321045
            ],
            "type" : "VEC3"
        },
        {
            "bufferView" : 1,
            "componentType" : 5126,
            "count" : 240,
            "type" : "VEC3"
        },
        {
            "bufferView" : 2,
            "componentType" : 5126,
            "count" : 240,
            "type" : "VEC2"
        },
        {
            "bufferView" : 3,
            "componentType" : 5123,
            "count" : 240,
            "type" : "SCALAR"
        },
        {
            "bufferView" : 4,
            "componentType" : 5126,
            "count" : 1786,
            "max" : [
                1.4693326950073242,
                5.868253231048584,
                1.6804187297821045
            ],
            "min" : [
                -2.949558734893799,
                -0.031340599060058594,
                -1.7591028213500977
            ],
            "type" : "VEC3"
        },
        {
            "bufferView" : 5,
            "componentType" : 5126,
            "count" : 1786,
            "type" : "VEC3"
        },
        {
            "bufferView" : 6,
            "componentType" : 5126,
            "count" : 1786,
            "type" : "VEC2"
        },
        {
            "bufferView" : 7,
            "componentType" : 5123,
            "count" : 2658,
            "type" : "SCALAR"
        },
        {
            "bufferView" : 8,
            "componentType" : 5126,
            "count" : 240,
            "max" : [
                -1.5858174562454224,
                4.989753246307373,
                1.8158400058746338
            ],
            "min" : [
                -3.080606460571289,
                3.418041229248047,
                0.24412816762924194
            ],
            "type" : "VEC3"
        },
        {
            "bufferView" : 9,
            "componentType" : 5126,
            "count" : 240,
            "type" : "VEC3"
        },
        {
            "bufferView" : 10,
            "componentType" : 5126,
            "count" : 240,
            "type" : "VEC2"
        },
        {
            "bufferView" : 11,
            "componentType" : 5123,
            "count" : 240,
            "type" : "SCALAR"
        },
        {
            "bufferView" : 12,
            "componentType" : 5126,
            "count" : 240,
            "max" : [
                0.3858519196510315,
                5.846851348876953,
                1.711897850036621
            ],
            "min" : [
                -1.1089369058609009,
                4.275139331817627,
                0.1401861310005188
            ],
            "type" : "VEC3"
        },
        {
            "bufferView" : 13,
            "componentType" : 5126,
            "count" : 240,
            "type" : "VEC3"
        },
        {
            "bufferView" : 14,
            "componentType" : 5126,
            "count" : 240,
            "type" : "VEC2"
        },
        {
            "bufferView" : 15,
            "componentType" : 5123,
            "count" : 240,
            "type" : "SCALAR"
        },
        {
            "bufferView" : 16,
            "componentType" : 5126,
            "count" : 240,
            "max" : [
                -0.5372709035873413,
                7.0031538009643555,
                0.07204645872116089
            ],
            "min" : [
                -2.616335391998291,
                4.817098140716553,
                -2.1140084266662598
            ],
            "type" : "VEC3"
        },
        {
            "bufferView" : 17,
            "componentType" : 5126,
            "count" : 240,
            "type" : "VEC3"
        },
        {
            "bufferView" : 18,
            "componentType" : 5126,
            "count" : 240,
            "type" : "VEC2"
        },
        {
            "bufferView" : 19,
            "componentType" : 5123,
            "count" : 240,
            "type" : "SCALAR"
        },
        {
            "bufferView" : 20,
            "componentType" : 5126,
            "count" : 240,
            "max" : [
                -1.681632399559021,
                6.372000217437744,
                -0.5068523287773132
            ],
            "min" : [
                -3.7606968879699707,
                4.185945510864258,
                -2.6929073333740234
            ],
            "type" : "VEC3"
        },
        {
            "bufferView" : 21,
            "componentType" : 5126,
            "count" : 240,
            "type" : "VEC3"
        },
        {
            "bufferView" : 22,
            "componentType" : 5126,
            "count" : 240,
            "type" : "VEC2"
        },
        {
            "bufferView" : 23,
            "componentType" : 5123,
            "count" : 240,
            "type" : "SCALAR"
        },
        {
            "bufferView" : 24,
            "componentType" : 5126,
            "count" : 240,
            "max" : [
                2.229820728302002,
                6.9437665939331055,
                0.8018136620521545
            ],
            "min" : [
                0.4378125071525574,
                5.059539318084717,
                -1.0824127197265625
            ],
            "type" : "VEC3"
        },
        {
            "bufferView" : 25,
            "componentType" : 5126,
            "count" : 240,
            "type" : "VEC3"
        },
        {
            "bufferView" : 26,
            "componentType" : 5126,
            "count" : 240,
            "type" : "VEC2"
        },
        {
            "bufferView" : 27,
            "componentType" : 5123,
            "count" : 240,
            "type" : "SCALAR"
        },
        {
            "bufferView" : 28,
            "componentType" : 5126,
            "count" : 480,
            "max" : [
                2.310788631439209,
                6.92258358001709,
                2.299996852874756
            ],
            "min" : [
                -2.0265560150146484,
                4.300832271575928,
                -0.427268922328949
            ],
            "type" : "VEC3"
        },
        {
            "bufferView" : 29,
            "componentType" : 5126,
            "count" : 480,
            "type" : "VEC3"
        },
        {
            "bufferView" : 30,
            "componentType" : 5126,
            "count" : 480,
            "type" : "VEC2"
        },
        {
            "bufferView" : 31,
            "componentType" : 5123,
            "count" : 480,
            "type" : "SCALAR"
        },
        {
            "bufferView" : 32,
            "componentType" : 5126,
            "count" : 240,
            "max" : [
                -0.3824726343154907,
                6.02952241897583,
                1.3014204502105713
            ],
            "min" : [
                -2.2834439277648926,
                4.030725479125977,
                -0.6973761320114136
            ],
            "type" : "VEC3"
        },
        {
            "bufferView" : 33,
            "componentType" : 5126,
            "count" : 240,
            "type" : "VEC3"
        },
        {
            "bufferView" : 34,
            "componentType" : 5126,
            "count" : 240,
            "type" : "VEC2"
        },
        {
            "bufferView" : 35,
            "componentType" : 5123,
            "count" : 240,
            "type" : "SCALAR"
        },
        {
            "bufferView" : 36,
            "componentType" : 5126,
            "count" : 240,
            "max" : [
                0.3528295159339905,
                6.350213527679443,
                0.4341619610786438
            ],
            "min" : [
                -1.6063543558120728,
                4.290208339691162,
                -1.6258432865142822
            ],
            "type" : "VEC3"
        },
        {
            "bufferView" : 37,
            "componentType" : 5126,
            "count" : 240,
            "type" : "VEC3"
        },
        {
            "bufferView" : 38,
            "componentType" : 5126,
            "count" : 240,
            "type" : "VEC2"
        },
        {
            "bufferView" : 39,
            "componentType" : 5123,
            "count" : 240,
            "type" : "SCALAR"
        }
    ],
    "bufferViews" : [
        {
            "buffer" : 0,
            "byteLength" : 2880,
            "byteOffset" : 0
        },
        {
            "buffer" : 0,
            "byteLength" : 2880,
            "byteOffset" : 2880
        },
        {
            "buffer" : 0,
            "byteLength" : 1920,
            "byteOffset" : 5760
        },
        {
            "buffer" : 0,
            "byteLength" : 480,
            "byteOffset" : 7680
        },
        {
            "buffer" : 0,
            "byteLength" : 21432,
            "byteOffset" : 8160
        },
        {
            "buffer" : 0,
            "byteLength" : 21432,
            "byteOffset" : 29592
        },
        {
            "buffer" : 0,
            "byteLength" : 14288,
            "byteOffset" : 51024
        },
        {
            "buffer" : 0,
            "byteLength" : 5316,
            "byteOffset" : 65312
        },
        {
            "buffer" : 0,
            "byteLength" : 2880,
            "byteOffset" : 70628
        },
        {
            "buffer" : 0,
            "byteLength" : 2880,
            "byteOffset" : 73508
        },
        {
            "buffer" : 0,
            "byteLength" : 1920,
            "byteOffset" : 76388
        },
        {
            "buffer" : 0,
            "byteLength" : 480,
            "byteOffset" : 78308
        },
        {
            "buffer" : 0,
            "byteLength" : 2880,
            "byteOffset" : 78788
        },
        {
            "buffer" : 0,
            "byteLength" : 2880,
            "byteOffset" : 81668
        },
        {
            "buffer" : 0,
            "byteLength" : 1920,
            "byteOffset" : 84548
        },
        {
            "buffer" : 0,
            "byteLength" : 480,
            "byteOffset" : 86468
        },
        {
            "buffer" : 0,
            "byteLength" : 2880,
            "byteOffset" : 86948
        },
        {
            "buffer" : 0,
            "byteLength" : 2880,
            "byteOffset" : 89828
        },
        {
            "buffer" : 0,
            "byteLength" : 1920,
            "byteOffset" : 92708
        },
        {
            "buffer" : 0,
            "byteLength" : 480,
            "byteOffset" : 94628
        },
        {
            "buffer" : 0,
            "byteLength" : 2880,
            "byteOffset" : 95108
        },
        {
            "buffer" : 0,
            "byteLength" : 2880,
            "byteOffset" : 97988
        },
        {
            "buffer" : 0,
            "byteLength" : 1920,
            "byteOffset" : 100868
        },
        {
            "buffer" : 0,
            "byteLength" : 480,
            "byteOffset" : 102788
        },
        {
            "buffer" : 0,
            "byteLength" : 2880,
            "byteOffset" : 103268
        },
        {
            "buffer" : 0,
            "byteLength" : 2880,
            "byteOffset" : 106148
        },
        {
            "buffer" : 0,
            "byteLength" : 1920,
            "byteOffset" : 109028
        },
        {
            "buffer" : 0,
            "byteLength" : 480,
            "byteOffset" : 110948
        },
        {
            "buffer" : 0,
            "byteLength" : 5760,
            "byteOffset" : 111428
        },
        {
            "buffer" : 0,
            "byteLength" : 5760,
            "byteOffset" : 117188
        },
        {
            "buffer" : 0,
            "byteLength" : 3840,
            "byteOffset" : 122948
        },
        {
            "buffer" : 0,
            "byteLength" : 960,
            "byteOffset" : 126788
        },
        {
            "buffer" : 0,
            "byteLength" : 2880,
            "byteOffset" : 127748
        },
        {
            "buffer" : 0,
            "byteLength" : 2880,
            "byteOffset" : 130628
        },
        {
            "buffer" : 0,
            "byteLength" : 1920,
            "byteOffset" : 133508
        },
        {
            "buffer" : 0,
            "byteLength" : 480,
            "byteOffset" : 135428
        },
        {
            "buffer" : 0,
            "byteLength" : 2880,
            "byteOffset" : 135908
        },
        {
            "buffer" : 0,
            "byteLength" : 2880,
            "byteOffset" : 138788
        },
        {
            "buffer" : 0,
            "byteLength" : 1920,
            "byteOffset" : 141668
        },
        {
            "buffer" : 0,
            "byteLength" : 480,
            "byteOffset" : 143588
        }
    ],
    "buffers" : [
        {
            "byteLength" : 144068,
            "uri" : "data:application/octet-stream;base64,"
        }
    ]
}
